<?xml version="1.0" standalone="no"?>
<!DOCTYPE svg PUBLIC "-//W3C//DTD SVG 20010904//EN"
 "http://www.w3.org/TR/2001/REC-SVG-20010904/DTD/svg10.dtd">
<svg version="1.0" xmlns="http://www.w3.org/2000/svg"
 width="512.000000pt" height="512.000000pt" viewBox="0 0 512.000000 512.000000"
 preserveAspectRatio="xMidYMid meet">
<metadata>
Created by potrace 1.14, written by Peter Selinger 2001-2017
</metadata>
<g transform="translate(0.000000,512.000000) scale(0.100000,-0.100000)"
fill="#000000" stroke="none">
<path d="M735 5034 c-89 -21 -117 -31 -171 -56 -130 -63 -232 -174 -284 -313
-31 -83 -39 -253 -15 -344 26 -103 71 -179 149 -257 85 -85 178 -134 311 -165
611 -142 933 -252 1330 -455 390 -198 664 -393 941 -669 176 -175 289 -311
399 -480 293 -448 457 -923 520 -1505 28 -248 76 -365 199 -477 231 -212 576
-202 802 22 145 143 185 282 158 550 -72 716 -290 1381 -636 1937 -282 454
-652 854 -1103 1192 -394 295 -902 563 -1414 745 -468 167 -1063 305 -1186
275z"/>
<path d="M380 3242 c-209 -69 -350 -263 -350 -482 0 -134 54 -264 150 -360 74
-74 157 -113 321 -150 395 -89 724 -234 979 -433 88 -69 259 -236 329 -322
136 -165 267 -396 349 -615 47 -123 69 -196 116 -383 42 -165 70 -221 156
-308 99 -100 218 -149 363 -149 288 0 523 252 504 540 -9 135 -105 470 -212
740 -281 711 -809 1285 -1490 1620 -262 129 -483 208 -793 281 -166 40 -340
48 -422 21z"/>
<path d="M818 1529 c-147 -15 -280 -80 -388 -188 -138 -139 -200 -323 -178
-526 28 -259 191 -459 443 -542 68 -22 98 -26 195 -26 144 0 242 28 354 104
101 67 168 145 221 254 53 111 67 171 67 285 0 106 -14 172 -57 265 -118 257
-374 403 -657 374z"/>
</g>
</svg>
